
<svg width="300px" height="300px" viewBox="0 0 642 641" version="1.1" xmlns="http://www.w3.org/2000/svg" xmlns:xlink="http://www.w3.org/1999/xlink">
    <!-- Generator: Sketch 48.2 (47327) - http://www.bohemiancoding.com/sketch -->
    <desc>Created with Sketch.</desc>
    <defs>
        <path d="M0,0 L300,0 L300,300 L225,300 L207,300 L206.895359,300.304743 C196.200459,331.451294 162.281262,348.030633 131.134711,337.335733 C113.633967,331.326441 99.914724,317.532932 94,300 L75,300 L7.99360578e-14,300 L7.99360578e-14,225 L7.99360578e-14,207 L0.455977241,206.887938 C31.8748518,199.16635 51.0852983,167.436736 43.3637105,136.017861 C38.1199634,114.681236 21.3779304,98.0727293 8.17124146e-14,93 L7.99360578e-14,75 L0,0 Z" id="path-1"></path>
        <mask id="mask-2" maskContentUnits="userSpaceOnUse" maskUnits="objectBoundingBox" x="0" y="0" width="300" height="340.584035" fill="white">
            <use xlink:href="#path-1"></use>
        </mask>
    </defs>
    <g id="Symbols" stroke="none" stroke-width="1" fill="none" fill-rule="evenodd">
        <g id="Logo" transform="translate(1.000000, 0.000000)">
            <g id="Group-2" transform="translate(-1.000000, 0.000000)">
                <g id="Group">
                    <g id="react" transform="translate(293.000000, 0.000000)">
                        <g id="PuzzlePiece" stroke="#979797" stroke-width="7">
                            <path d="M3.5,3.5 L3.5,96.2075581 C23.0194802,101.185153 38.346692,116.497185 43.2491841,136.194698 C50.5552504,165.549428 32.7719074,195.267563 3.5,202.73468 L3.5,296.5 L96.5130701,296.5 L97.3163743,298.881223 C102.88392,315.385018 115.797879,328.368884 132.271376,334.025447 C161.589706,344.092584 193.517936,328.486409 203.585073,299.168079 L204.501221,296.5 L296.5,296.5 L296.5,3.5 L3.5,3.5 Z" id="Rectangle"></path>
                        </g>
                        <g transform="translate(67.000000, 50.000000)" fill="#61DAFB" fill-rule="nonzero">
                            <path d="M202,96.5220874 C202,82.1652552 185.242152,68.5593957 159.549531,60.1219959 C165.478598,32.0267796 162.843457,9.67429618 151.232369,2.5179675 C148.556054,0.839322499 145.426824,0.0441748684 142.009376,0.0441748684 L142.009376,9.89517052 C143.903384,9.89517052 145.426824,10.2927443 146.703221,11.0437171 C152.302894,14.4893568 154.732165,27.6092927 152.838157,44.4840925 C152.385243,48.6365301 151.644109,53.0098421 150.73828,57.4715038 C142.668161,55.3511101 133.85691,53.71664 124.592744,52.6564431 C119.034244,44.4840925 113.269874,37.0627146 107.464329,30.5690089 C120.887077,17.1840238 133.486343,9.85099565 142.05055,9.85099565 L142.05055,0 C130.72768,0 115.905014,8.6582742 100.917652,23.6777295 C85.9302894,8.74662394 71.1076233,0.176699474 59.7847534,0.176699474 L59.7847534,10.0276951 C68.3077864,10.0276951 80.9482267,17.3165484 94.3709743,30.6131838 C88.6066042,37.1068894 82.842234,44.4840925 77.3660823,52.6564431 C68.0607419,53.71664 59.2494904,55.3511101 51.1793722,57.5156786 C50.2323685,53.0981918 49.5324093,48.8132296 49.0383204,44.7049668 C47.103139,27.8301671 49.4912352,14.7102312 55.049735,11.2204166 C56.2849572,10.4252689 57.890746,10.07187 59.7847534,10.07187 L59.7847534,0.220874342 C56.3261313,0.220874342 53.1969018,1.01602197 50.479413,2.69466697 C38.9094986,9.85099565 36.315532,32.1593042 42.2857725,60.1661707 C16.6754994,68.6477455 0,82.2094301 0,96.5220874 C0,110.87892 16.7578475,124.484779 42.4504688,132.922179 C36.5214024,161.017395 39.156543,183.369879 50.7676315,190.526207 C53.4439462,192.204852 56.5731757,193 60.0317978,193 C71.3546678,193 86.1773339,184.341726 101.164696,169.322271 C116.152059,184.253376 130.974725,192.823301 142.297595,192.823301 C145.756217,192.823301 148.885446,192.028153 151.602935,190.349508 C163.17285,183.193179 165.766816,160.884871 159.796576,132.878004 C185.324501,124.440604 202,110.834745 202,96.5220874 Z M148.391358,67.0574502 C146.867917,72.7560082 144.973909,78.6312657 142.832858,84.5065232 C141.144721,80.9725338 139.374236,77.4385443 137.439054,73.9045548 C135.545047,70.3705653 133.527517,66.9249256 131.509988,63.5676356 C137.356706,64.4953079 142.997554,65.6438544 148.391358,67.0574502 Z M129.533632,114.103685 C126.322055,120.067292 123.028129,125.721675 119.610681,130.978485 C113.475744,131.552758 107.258459,131.861982 101,131.861982 C94.782715,131.861982 88.5654301,131.552758 82.4716673,131.02266 C79.0542193,125.76585 75.7191194,120.155642 72.5075418,114.23621 C69.3783123,108.449302 66.5373013,102.574044 63.9433347,96.654612 C66.4961272,90.7351797 69.3783123,84.8157473 72.4663677,79.0288396 C75.6779454,73.0652323 78.9718712,67.4108492 82.3893192,62.1540398 C88.524256,61.5797665 94.741541,61.2705425 101,61.2705425 C107.217285,61.2705425 113.43457,61.5797665 119.528333,62.109865 C122.945781,67.3666743 126.280881,72.9768826 129.492458,78.8963149 C132.621688,84.6832227 135.462699,90.5584802 138.056665,96.4779126 C135.462699,102.397345 132.621688,108.316777 129.533632,114.103685 Z M142.832858,108.360952 C145.056258,114.280385 146.950265,120.199817 148.51488,125.94255 C143.121076,127.356146 137.439054,128.548867 131.551162,129.476539 C133.568691,126.075074 135.586221,122.58526 137.480228,119.007095 C139.374236,115.473106 141.144721,111.894942 142.832858,108.360952 Z M101.082348,155.495537 C97.2531594,151.254749 93.4239706,146.528038 89.635956,141.359579 C93.3416225,141.536278 97.1296372,141.668803 100.958826,141.668803 C104.829189,141.668803 108.658377,141.580453 112.405218,141.359579 C108.699552,146.528038 104.870363,151.254749 101.082348,155.495537 Z M70.4488382,129.476539 C64.6021199,128.548867 58.9612719,127.40032 53.5674684,125.986725 C55.0909091,120.288167 56.9849164,114.412909 59.1259682,108.537652 C60.8141052,112.071641 62.5845903,115.605631 64.5197717,119.13962 C66.4549531,122.67361 68.4313086,126.119249 70.4488382,129.476539 Z M100.876478,37.5486381 C104.705667,41.7894255 108.534855,46.5161364 112.32287,51.684596 C108.617203,51.5078965 104.829189,51.3753719 101,51.3753719 C97.1296372,51.3753719 93.3004484,51.4637217 89.5536078,51.684596 C93.2592744,46.5161364 97.0884631,41.7894255 100.876478,37.5486381 Z M70.4076641,63.5676356 C68.3901345,66.9691005 66.372605,70.4589151 64.4785976,74.0370794 C62.5845903,77.5710689 60.8141052,81.1050584 59.1259682,84.6390478 C56.9025683,78.7196155 55.0085609,72.8001831 53.4439462,67.0574502 C58.8377497,65.6880293 64.5197717,64.4953079 70.4076641,63.5676356 Z M33.1451284,118.874571 C18.5695067,112.204166 9.14064411,103.457542 9.14064411,96.5220874 C9.14064411,89.5866331 18.5695067,80.7958343 33.1451284,74.169604 C36.6860987,72.5351339 40.5564615,71.0773632 44.5503465,69.7079423 C46.8972687,78.3662165 49.9853241,87.3778897 53.8145128,96.6104372 C50.0264982,105.79881 46.9796168,114.766308 44.6738687,123.380407 C40.5976355,122.010986 36.7272727,120.509041 33.1451284,118.874571 Z M55.2967795,182.000458 C49.6971056,178.554818 47.2678353,165.434882 49.1618426,148.560082 C49.6147574,144.407645 50.3558907,140.034333 51.2617203,135.572671 C59.3318386,137.693065 68.1430901,139.327535 77.4072564,140.387732 C82.9657562,148.560082 88.7301264,155.98146 94.5356706,162.475166 C81.112923,175.860151 68.5136567,183.193179 59.9494497,183.193179 C58.0966164,183.149004 56.5320016,182.751431 55.2967795,182.000458 Z M152.96168,148.339208 C154.896861,165.214008 152.508765,178.333944 146.950265,181.823758 C145.715043,182.618906 144.109254,182.972305 142.215247,182.972305 C133.692214,182.972305 121.051773,175.683452 107.629026,162.386816 C113.393396,155.893111 119.157766,148.515908 124.633918,140.343557 C133.939258,139.28336 142.75051,137.64889 150.820628,135.484321 C151.767631,139.945983 152.508765,144.230945 152.96168,148.339208 Z M168.813698,118.874571 C165.272727,120.509041 161.402364,121.966812 157.408479,123.336233 C155.061557,114.677958 151.973502,105.666285 148.144313,96.4337377 C151.932328,87.2453651 154.979209,78.2778668 157.284957,69.6637675 C161.36119,71.0331884 165.231553,72.5351339 168.854872,74.169604 C183.430493,80.8400092 192.859356,89.5866331 192.859356,96.5220874 C192.818182,103.457542 183.389319,112.248341 168.813698,118.874571 Z" id="Shape"></path>
                            <ellipse id="Oval" cx="101" cy="96.5" rx="19" ry="20.5"></ellipse>
                        </g>
                    </g>
                    <g id="django">
                        <g id="PuzzlePiece" transform="translate(170.500000, 150.000000) rotate(270.000000) translate(-170.500000, -150.000000) translate(20.500000, -20.500000)" stroke="#979797" stroke-width="7">
                            <path d="M3.5,3.5 L3.5,90.297121 C24.8617584,96.3850327 41.4275946,113.474714 46.7625709,135.182548 C54.7629536,167.73583 35.4813593,200.603888 3.5,209.701496 L3.5,296.5 L96.5130701,296.5 L97.3163743,298.881223 C102.88392,315.385018 115.797879,328.368884 132.271376,334.025447 C161.589706,344.092584 193.517936,328.486409 203.585073,299.168079 L204.501221,296.5 L296.5,296.5 L296.5,3.5 L3.5,3.5 Z" id="Rectangle"></path>
                        </g>
                        <g transform="translate(64.000000, 52.000000)" fill="#2BA977" fill-rule="nonzero" id="Shape">
                            <path d="M68.9816401,0 L101,0 L101,147.650689 C84.5993469,150.772008 72.5254995,152 59.4626683,152 C20.3565893,151.95893 0,134.380978 0,100.621454 C0,68.0940282 21.5928194,46.9840583 55.0534474,46.9840583 C60.2456139,46.9840583 64.2015503,47.3947579 68.9816401,48.6268574 L68.9816401,0 Z M70.1037569,75.2348441 C66.3538586,74.0027444 63.2632834,73.592044 59.3073472,73.592044 C43.1127325,73.592044 33.7585915,83.5309798 33.7585915,100.948759 C33.7585915,117.906554 42.700656,127.27051 59.1013085,127.27051 C62.6451682,127.27051 65.5297047,127.069267 70.1037569,126.453217 L70.1037569,75.2348441 Z"></path>
                            <path d="M154,51 L154,125.028169 C154,150.522648 152.114508,162.782535 146.581002,173.352112 C141.416396,183.514535 134.612232,189.922085 120.553026,197 L91,182.893521 C105.059206,176.276225 111.863371,170.428 116.208198,161.503493 C120.75797,152.377465 122.192583,141.807887 122.192583,114.006198 L122.192583,51 L154,51 Z"></path>
                            <polygon points="119 0 151 0 151 33 119 33"></polygon>
                        </g>
                    </g>
                    <g id="tf" transform="translate(1.000000, 247.000000)">
                        <g id="PuzzlePiece" transform="translate(150.000000, 173.000000) rotate(180.000000) translate(-150.000000, -173.000000) translate(0.000000, 0.000000)" stroke="#979797" stroke-width="7">
                            <path d="M3.5,3.5 L3.5,90.297121 C24.8617584,96.3850327 41.4275946,113.474714 46.7625709,135.182548 C54.7629536,167.73583 35.4813593,200.603888 3.5,209.701496 L3.5,296.5 L91.5563627,296.5 L92.334092,298.935185 C98.3353259,317.725934 112.974787,332.504735 131.707844,338.683702 C164.007807,349.337616 198.828805,331.790027 209.48272,299.490063 L210.468971,296.5 L296.5,296.5 L296.5,3.5 L3.5,3.5 Z" id="Rectangle"></path>
                        </g>
                        <g transform="translate(38.000000, 93.000000)" fill-rule="nonzero">
                            <path d="M112.001112,32 L112.001112,64.3648398 L168,96.7296968 L168,64.3648398 L112.001112,32 Z M0,64.3648398 L0,96.7296968 L27.9994354,112.908786 L27.9994354,80.5472683 L0,64.3648398 Z M83.9983233,80.5472683 L55.9988879,96.7296968 L55.9988879,193.817572 L83.9983233,210 L83.9983233,145.273626 L112.001112,161.456054 L112.001112,129.091214 L83.9983233,112.908786 L83.9983233,80.5472683 Z" id="path4508" fill="#E55B2D"></path>
                            <path d="M112.000009,32 L28,80.5472683 L28,112.908786 L83.9977759,80.5472683 L83.9977759,112.908786 L112.000009,96.7296968 L112.000009,32 Z M196,48.1824285 L167.997784,64.3648398 L167.997784,96.7296968 L196,80.5472683 L196,48.1824285 Z M139.998888,112.908786 L112.000009,129.091214 L112.000009,161.456054 L139.998888,145.273626 L139.998888,112.908786 Z M112.000009,161.456054 L83.9977759,145.273626 L83.9977759,210 L112.000009,193.817572 L112.000009,161.456054 Z" id="path4491" fill="#ED8E24"></path>
                            <path d="M111.428102,0 L0,64.9999914 L27.8561872,81.250832 L111.428102,32.4983275 L167.140494,64.9999914 L195,48.749168 L111.428102,0 Z M111.428102,97.5016725 L83.5685787,113.749159 L111.428102,130 L139.284289,113.749159 L111.428102,97.5016725 Z" id="path4506" fill="#F8BF3C"></path>
                        </g>
                    </g>
                    <g id="PuzzlePiece" transform="translate(471.500000, 491.000000) rotate(90.000000) translate(-471.500000, -491.000000) translate(321.500000, 320.500000)" stroke="#979797" stroke-dasharray="10" stroke-width="14">
                        <use id="Rectangle" mask="url(#mask-2)" xlink:href="#path-1"></use>
                    </g>
                </g>
            </g>
        </g>
    </g>
</svg>